<svg width="7406" height="2737" viewBox="0 0 7406 2737" fill="none" xmlns="http://www.w3.org/2000/svg">
<path d="M1775.38 625.564C1966.34 625.564 2138.49 671.289 2291.82 762.746C2447.83 851.511 2568.87 976.589 2654.94 1137.97C2743.7 1296.67 2788.08 1476.88 2788.08 1678.59C2788.08 1880.3 2743.7 2061.86 2654.94 2223.25C2568.87 2384.63 2447.82 2511.06 2291.81 2602.51L2291.81 2602.51C2138.49 2691.28 1966.34 2735.66 1775.38 2735.66C1584.42 2735.66 1410.93 2691.28 1254.92 2602.51L1254.91 2602.51L1255.16 2602.08L1254.91 2602.51C1101.59 2511.05 980.545 2384.63 891.784 2223.25L891.781 2223.24C805.708 2061.85 762.677 1880.3 762.677 1678.59C762.677 1476.89 805.708 1296.68 891.782 1137.98L891.784 1137.97C980.545 976.59 1101.59 851.51 1254.91 762.743C1410.92 671.289 1584.42 625.564 1775.38 625.564ZM4248.83 625.564C4402.13 625.564 4543.34 655.148 4672.46 714.323L4675.54 715.652C4805.97 772.118 4913.89 855.069 4999.3 964.502L4999.56 964.839L4999.27 965.15L4942.82 1025.64L4942.4 1026.08L4942.04 1025.59C4864.13 918.127 4764.73 837.529 4643.83 783.796C4522.92 730.057 4391.25 703.185 4248.83 703.185C4068.78 703.185 3906.22 744.837 3761.12 828.132L3761.12 828.134C3618.72 908.739 3507.21 1024.27 3426.6 1174.75L3426.6 1174.75C3345.99 1322.53 3305.68 1490.48 3305.68 1678.59C3305.68 1869.4 3345.99 2038.69 3426.6 2186.47C3507.21 2334.26 3618.72 2449.8 3761.13 2533.09C3906.22 2616.39 4068.78 2658.04 4248.83 2658.04C4391.25 2658.04 4522.92 2631.16 4643.83 2577.43C4764.73 2523.69 4864.13 2443.09 4942.04 2335.63L4942.4 2335.14L4942.82 2335.58L4999.27 2396.07L4999.56 2396.38L4999.3 2396.72C4913.22 2507.01 4804.27 2591.75 4672.47 2650.93L4672.46 2650.93C4543.35 2707.42 4402.13 2735.66 4248.83 2735.66C4052.49 2735.66 3876.31 2691.28 3720.3 2602.51L3720.3 2602.51C3564.29 2511.06 3441.9 2385.98 3353.14 2227.28L3353.13 2227.27C3267.06 2065.89 3224.03 1882.99 3224.03 1678.59C3224.03 1474.2 3267.06 1292.65 3353.13 1133.94L3353.14 1133.94C3441.9 972.556 3564.29 847.474 3720.3 758.708C3876.31 669.942 4052.49 625.564 4248.83 625.564ZM82.1533 637.662V2723.56H0.5V637.662H82.1533ZM1775.38 703.185C1600.71 703.185 1442.18 744.835 1299.78 828.13L1299.77 828.134C1157.37 908.739 1045.86 1024.27 965.251 1174.75L965.249 1174.75C884.64 1322.53 844.33 1490.48 844.33 1678.59C844.33 1866.71 884.639 2036 965.249 2186.47C1045.86 2334.26 1157.37 2449.8 1299.78 2533.09C1442.18 2616.39 1600.71 2658.04 1775.38 2658.04C1950.04 2658.04 2108.58 2616.39 2250.98 2533.09C2393.39 2449.8 2504.9 2334.26 2585.51 2186.47C2666.12 2036 2706.43 1866.71 2706.43 1678.59C2706.43 1490.48 2666.12 1322.53 2585.51 1174.75L2585.51 1174.75C2504.9 1024.27 2393.39 908.739 2250.99 828.134L2250.98 828.13C2108.58 744.835 1950.04 703.185 1775.38 703.185ZM82.1533 0.5V324.114H0.5V0.5H82.1533ZM1564.16 0.5V324.114H1482.51V0.5H1564.16ZM2058.17 0.5V324.114H1976.51V0.5H2058.17Z" fill="black" stroke="black"/>
<path d="M6392.79 625.72C6583.76 625.72 6755.91 671.445 6909.23 762.902C7065.24 851.666 7186.28 976.744 7272.35 1138.13L7274.43 1141.85C7361.81 1299.64 7405.5 1478.62 7405.5 1678.75V1679.25H7323.84V1678.75C7323.84 1490.63 7283.53 1322.69 7202.92 1174.9L7202.92 1174.9C7122.31 1024.43 7010.8 908.894 6868.4 828.289L6868.4 828.285C6725.99 744.991 6567.46 703.341 6392.79 703.341C6218.13 703.341 6059.6 744.991 5917.19 828.285L5917.18 828.289C5774.78 908.894 5663.28 1024.43 5582.67 1174.9L5582.66 1174.9C5502.05 1322.69 5461.74 1490.63 5461.74 1678.75C5461.74 1866.87 5502.05 2036.16 5582.66 2186.63L5584.56 2190.09C5665.02 2336.22 5775.89 2450.6 5917.19 2533.25C6059.6 2616.54 6218.13 2658.19 6392.79 2658.19C6567.46 2658.19 6725.99 2616.54 6868.4 2533.25L6868.83 2532.99L6869.08 2533.42L6909.41 2601.98L6909.66 2602.41L6909.23 2602.67C6755.9 2691.43 6583.75 2735.81 6392.79 2735.81C6201.83 2735.81 6028.34 2691.43 5872.33 2602.67L5872.32 2602.66C5719 2511.21 5597.96 2384.78 5509.2 2223.4L5509.19 2223.4C5423.12 2062.01 5380.09 1880.46 5380.09 1678.75C5380.09 1477.04 5423.12 1296.83 5509.2 1138.13L5509.2 1138.13C5597.96 976.746 5719 851.665 5872.33 762.899C6028.34 671.445 6201.83 625.72 6392.79 625.72Z" fill="black" stroke="black"/>
<path d="M7405.5 2646.79H7323.85V1420.35L7324.82 1420.2L7405.48 1674.26L7405.5 1674.33V2646.79Z" fill="black" stroke="black"/>
</svg>
